<?xml version="1.0" encoding="utf-8"?>
<!-- Generator: Adobe Illustrator 24.1.2, SVG Export Plug-In . SVG Version: 6.00 Build 0)  -->
<svg version="1.1" id="objects" xmlns="http://www.w3.org/2000/svg" xmlns:xlink="http://www.w3.org/1999/xlink" x="0px" y="0px"
	 viewBox="0 0 750 436" style="enable-background:new 0 0 750 436;" xml:space="preserve">
<style type="text/css">
	.st0{fill:url(#XMLID_100_);}
	.st1{fill:#71A6EA;}
	.st2{fill:none;}
	.st3{fill:#364971;}
	.st4{fill:#5686CC;}
	.st5{opacity:0.5;fill:#4771BD;}
	.st6{fill:#ADCBF7;}
	.st7{opacity:0.7;}
	.st8{fill:url(#XMLID_101_);}
	.st9{fill:url(#XMLID_102_);}
	.st10{fill:url(#XMLID_103_);}
	.st11{fill:#FCD16C;}
	.st12{fill:#FFEDB2;}
	.st13{fill:#6292DC;}
	.st14{fill:#19313A;}
	.st15{fill:url(#XMLID_104_);}
	.st16{fill:#E67686;}
	.st17{fill:#A53563;}
	.st18{opacity:0.5;fill:#C94577;}
	.st19{fill:#F9E8A0;}
	.st20{opacity:0.5;fill:url(#XMLID_105_);}
	.st21{fill:#DEF1F8;}
	.st22{fill:#EA4C8E;}
	.st23{opacity:0.5;fill:#9AB5EC;}
	.st24{fill:#B9CFFE;}
	.st25{fill:#FFFFFF;}
	.st26{opacity:0.3;fill:url(#XMLID_106_);}
	.st27{fill:url(#XMLID_113_);}
	.st28{fill:url(#XMLID_116_);}
	.st29{fill:#A2BFF4;}
	.st30{opacity:0.4;fill:#4771BD;}
	.st31{opacity:0.5;fill:url(#XMLID_117_);}
	.st32{fill:url(#XMLID_118_);}
	.st33{fill:url(#XMLID_120_);}
	.st34{fill:#4771BD;}
	.st35{fill:url(#XMLID_122_);}
	.st36{fill:url(#XMLID_125_);}
	.st37{fill:#D5EAFF;}
	.st38{opacity:0.6;fill:#71A6EA;}
	.st39{fill:#58448B;}
	.st40{fill:#48376D;}
	.st41{fill:#3E3063;}
	.st42{fill:#AD6475;}
	.st43{fill:url(#SVGID_1_);}
	.st44{fill:#FFFFFF;fill-opacity:0.2;}
	.st45{fill:#FFFFFF;fill-opacity:0.3;}
</style>
<g id="XMLID_127_">
	<g id="XMLID_609_">
		<radialGradient id="XMLID_100_" cx="509.2643" cy="252.2008" r="301.6006" gradientUnits="userSpaceOnUse">
			<stop  offset="0" style="stop-color:#803E67"/>
			<stop  offset="0.4409" style="stop-color:#3E3063"/>
			<stop  offset="0.9892" style="stop-color:#181743"/>
		</radialGradient>
		<rect id="XMLID_631_" y="-0.34" class="st0" width="750" height="435.99"/>
	</g>
	<g id="Rocket">
		<g id="XMLID_192_">
			<g id="XMLID_476_">
				<g>
					<path id="XMLID_109_" class="st1" d="M494.64,300.74c-2.85-44.47-0.35-75.69,0-77.8c0.6-3.66,5.02-14.73,7.76-14.73
						c2.74,0,7.16,11.07,7.76,14.73c0.35,2.11,2.2,28.99,1.78,76.53L494.64,300.74z"/>
				</g>
			</g>
			<g id="XMLID_474_">
				<path id="XMLID_475_" class="st2" d="M494.58,223.42c5.27,1.02,10.47,1.02,15.62-0.07c-0.01-0.19-0.03-0.32-0.05-0.41
					c-0.6-3.66-5.02-14.72-7.75-14.72c-2.75,0-7.16,11.06-7.76,14.72C494.62,223.03,494.6,223.19,494.58,223.42z"/>
			</g>
			<path id="XMLID_473_" class="st3" d="M494.28,226.84c5.46,1.1,10.85,1.1,16.2-0.07h0.01c-0.01-0.16-0.02-0.32-0.04-0.47
				c-0.01-0.25-0.04-0.47-0.05-0.69c-0.02-0.35-0.05-0.67-0.07-0.95c-0.01-0.04-0.01-0.06-0.01-0.08c-0.02-0.33-0.06-0.61-0.08-0.84
				c0-0.08-0.01-0.15-0.02-0.22c0-0.07,0-0.12-0.01-0.18h-0.01c-5.16,1.09-10.35,1.09-15.62,0.07c-0.04,0.32-0.08,0.76-0.13,1.33
				c-0.02,0.23-0.05,0.49-0.07,0.77C494.35,225.92,494.32,226.36,494.28,226.84z"/>
			<path id="XMLID_196_" class="st3" d="M511.74,259.37c-0.56,5.17-2.14,11.61-5.43,16.1c-2.69,3.68-6.93,7.23-12.46,10.65
				c0.07,1.62,0.14,3.26,0.23,4.92c6.16-3.51,10.89-7.12,13.77-11.05c1.87-2.56,3.18-5.45,4.07-8.32
				C511.88,267.28,511.82,263.18,511.74,259.37z"/>
			<path id="XMLID_178_" class="st4" d="M494.58,223.42c5.27,1.02,10.47,1.02,15.62-0.07c-0.01-0.19-0.03-0.32-0.05-0.41
				c-0.6-3.66-5.02-14.72-7.75-14.72c-2.75,0-7.16,11.06-7.76,14.72C494.62,223.03,494.6,223.19,494.58,223.42z"/>
			<g id="XMLID_477_">
				<path id="XMLID_175_" class="st3" d="M496.48,233.47c0-0.67,0.54-1.21,1.21-1.21s1.21,0.54,1.21,1.21
					c0,0.67-0.54,1.21-1.21,1.21S496.48,234.13,496.48,233.47z"/>
				<path id="XMLID_480_" class="st3" d="M496.48,238.97c0-0.67,0.54-1.21,1.21-1.21s1.21,0.54,1.21,1.21
					c0,0.67-0.54,1.21-1.21,1.21S496.48,239.63,496.48,238.97z"/>
				<path id="XMLID_485_" class="st3" d="M496.48,244.46c0-0.67,0.54-1.21,1.21-1.21s1.21,0.54,1.21,1.21
					c0,0.67-0.54,1.21-1.21,1.21S496.48,245.13,496.48,244.46z"/>
			</g>
			<path id="XMLID_513_" class="st5" d="M510.16,222.94c-0.6-3.66-5.01-14.72-7.76-14.73l0,0c2.79,4.72,2.6,9.86,3.16,19.44
				c0.34,5.82,1.64,41.75,1.11,72.2l5.27-0.39C512.35,251.93,510.5,225.05,510.16,222.94z"/>
			<path id="XMLID_524_" class="st6" d="M500.07,233.47c0.18-8.04,0.23-23.71,2.33-25.26l0,0c-3,1.49-6.3,10.72-6.75,26.6
				c-0.68,24.08,0.32,50.08,1.13,65.77l4.2-0.31C500.6,278.54,499.94,239.24,500.07,233.47z"/>
			<g id="XMLID_472_" class="st7">
				<g>
					<linearGradient id="XMLID_101_" gradientUnits="userSpaceOnUse" x1="501.4937" y1="207.8537" x2="503.2415" y2="300.783">
						<stop  offset="0" style="stop-color:#71A6EA;stop-opacity:0"/>
						<stop  offset="1" style="stop-color:#364971"/>
					</linearGradient>
					<path id="XMLID_107_" class="st8" d="M494.64,300.74c-2.85-44.47-0.35-75.69,0-77.8c0.6-3.66,5.02-14.73,7.76-14.73
						c2.74,0,7.16,11.07,7.76,14.73c0.35,2.11,2.2,28.99,1.78,76.53L494.64,300.74z"/>
				</g>
			</g>
		</g>
		<g id="XMLID_193_">
			<g id="XMLID_621_">
				<g>
					<path id="XMLID_108_" class="st1" d="M573.79,300.74c2.85-44.47,0.35-75.69,0-77.8c-0.6-3.66-5.02-14.73-7.76-14.73
						c-2.74,0-7.16,11.07-7.76,14.73c-0.35,2.11-2.2,28.99-1.78,76.53L573.79,300.74z"/>
				</g>
			</g>
			<g id="XMLID_617_">
				<path id="XMLID_620_" class="st2" d="M573.85,223.42c-5.27,1.02-10.47,1.02-15.62-0.07c0.01-0.19,0.03-0.32,0.05-0.41
					c0.6-3.66,5.02-14.72,7.75-14.72c2.75,0,7.16,11.06,7.76,14.72C573.8,223.03,573.82,223.19,573.85,223.42z"/>
			</g>
			<path id="XMLID_610_" class="st3" d="M574.14,226.84c-5.46,1.1-10.85,1.1-16.2-0.07h-0.01c0.01-0.16,0.02-0.32,0.04-0.47
				c0.01-0.25,0.04-0.47,0.05-0.69c0.02-0.35,0.05-0.67,0.07-0.95c0.01-0.04,0.01-0.06,0.01-0.08c0.02-0.33,0.06-0.61,0.08-0.84
				c0-0.08,0.01-0.15,0.02-0.22c0-0.07,0-0.12,0.01-0.18h0.01c5.16,1.09,10.35,1.09,15.62,0.07c0.04,0.32,0.08,0.76,0.13,1.33
				c0.02,0.23,0.05,0.49,0.07,0.77C574.07,225.92,574.1,226.36,574.14,226.84z"/>
			<path id="XMLID_598_" class="st3" d="M556.68,259.37c0.56,5.17,2.14,11.61,5.43,16.1c2.69,3.68,6.93,7.23,12.45,10.65
				c-0.07,1.62-0.14,3.26-0.23,4.92c-6.16-3.51-10.89-7.12-13.77-11.05c-1.87-2.56-3.18-5.45-4.07-8.32
				C556.54,267.28,556.6,263.18,556.68,259.37z"/>
			<path id="XMLID_596_" class="st4" d="M573.85,223.42c-5.27,1.02-10.47,1.02-15.62-0.07c0.01-0.19,0.03-0.32,0.05-0.41
				c0.6-3.66,5.02-14.72,7.75-14.72c2.75,0,7.16,11.06,7.76,14.72C573.8,223.03,573.82,223.19,573.85,223.42z"/>
			<g id="XMLID_525_">
				<path id="XMLID_528_" class="st3" d="M571.95,233.47c0-0.67-0.54-1.21-1.21-1.21c-0.67,0-1.21,0.54-1.21,1.21
					c0,0.67,0.54,1.21,1.21,1.21C571.41,234.68,571.95,234.13,571.95,233.47z"/>
				<path id="XMLID_527_" class="st3" d="M571.95,238.97c0-0.67-0.54-1.21-1.21-1.21c-0.67,0-1.21,0.54-1.21,1.21
					c0,0.67,0.54,1.21,1.21,1.21C571.41,240.17,571.95,239.63,571.95,238.97z"/>
				<path id="XMLID_526_" class="st3" d="M571.95,244.46c0-0.67-0.54-1.21-1.21-1.21c-0.67,0-1.21,0.54-1.21,1.21
					c0,0.67,0.54,1.21,1.21,1.21C571.41,245.67,571.95,245.13,571.95,244.46z"/>
			</g>
			<path id="XMLID_517_" class="st5" d="M558.27,222.94c0.6-3.66,5.01-14.72,7.76-14.73l0,0c-2.79,4.72-2.6,9.86-3.16,19.44
				c-0.34,5.82-1.64,41.75-1.11,72.2l-5.27-0.39C556.07,251.93,557.92,225.05,558.27,222.94z"/>
			<path id="XMLID_510_" class="st6" d="M568.35,233.47c-0.18-8.04-0.23-23.71-2.33-25.26h0c3,1.49,6.3,10.72,6.75,26.6
				c0.68,24.08-0.32,50.08-1.13,65.77l-4.2-0.31C567.82,278.54,568.48,239.24,568.35,233.47z"/>
			<g id="XMLID_210_" class="st7">
				<g>
					
						<linearGradient id="XMLID_102_" gradientUnits="userSpaceOnUse" x1="1426.3492" y1="207.8537" x2="1428.097" y2="300.783" gradientTransform="matrix(-1 0 0 1 1993.2787 0)">
						<stop  offset="0" style="stop-color:#71A6EA;stop-opacity:0"/>
						<stop  offset="1" style="stop-color:#364971"/>
					</linearGradient>
					<path id="XMLID_111_" class="st9" d="M573.79,300.74c2.85-44.47,0.35-75.69,0-77.8c-0.6-3.66-5.02-14.73-7.76-14.73
						c-2.74,0-7.16,11.07-7.76,14.73c-0.35,2.11-2.2,28.99-1.78,76.53L573.79,300.74z"/>
				</g>
			</g>
		</g>
		<g id="XMLID_462_">
			<linearGradient id="XMLID_103_" gradientUnits="userSpaceOnUse" x1="534.2115" y1="423.6485" x2="534.2115" y2="347.3181">
				<stop  offset="0" style="stop-color:#EE7249"/>
				<stop  offset="0.1101" style="stop-color:#F28958"/>
				<stop  offset="0.2383" style="stop-color:#F49B63"/>
				<stop  offset="0.3906" style="stop-color:#F6A86C"/>
				<stop  offset="0.5886" style="stop-color:#F8B071"/>
				<stop  offset="1" style="stop-color:#F8B272"/>
			</linearGradient>
			<path id="XMLID_444_" class="st10" d="M557.78,370.88c0-13.45-11.27-24.27-24.87-23.53c-12.29,0.66-22.16,11.03-22.25,23.34
				c-0.06,7.29,3.2,13.81,8.34,18.16c3.43,2.9,5.55,7.05,5.55,11.54v23.26h19.35v-23.16c0-4.53,2.13-8.73,5.58-11.67
				C554.55,384.5,557.78,378.07,557.78,370.88z"/>
			<path id="XMLID_443_" class="st11" d="M547.36,370.88c0-7.43-6.17-13.42-13.67-13.13c-6.82,0.26-12.43,5.95-12.62,12.77
				c-0.12,4.57,2.09,8.62,5.53,11.07c2.76,1.96,4.31,5.2,4.31,8.58v33.48h6.59v-33.32c0-3.43,1.52-6.76,4.32-8.75
				C545.17,379.2,547.36,375.3,547.36,370.88z"/>
			<circle id="XMLID_420_" class="st12" cx="544.04" cy="379.59" r="6.14"/>
			<path id="XMLID_440_" class="st12" d="M540.29,367.36c0-2.07,1.68-3.75,3.75-3.75c2.07,0,3.75,1.68,3.75,3.75
				c0,2.07-1.68,3.75-3.75,3.75C541.97,371.12,540.29,369.44,540.29,367.36z"/>
			<path id="XMLID_441_" class="st12" d="M533.12,361.37c0-1.03,0.83-1.86,1.86-1.86s1.86,0.83,1.86,1.86
				c0,1.03-0.83,1.86-1.86,1.86S533.12,362.4,533.12,361.37z"/>
			<path id="XMLID_446_" class="st12" d="M518.26,363.61c0-2.79,2.26-5.05,5.05-5.05c2.79,0,5.05,2.26,5.05,5.05
				s-2.26,5.05-5.05,5.05C520.52,368.66,518.26,366.4,518.26,363.61z"/>
			<path id="XMLID_447_" class="st12" d="M517.42,372.73c0,1.31,1.06,2.37,2.37,2.37s2.37-1.06,2.37-2.37
				c0-1.31-1.06-2.37-2.37-2.37S517.42,371.42,517.42,372.73z"/>
			<circle id="XMLID_457_" class="st12" cx="523.03" cy="381.01" r="3.84"/>
			<path id="XMLID_458_" class="st12" d="M528.36,386.82c0-1.75,1.42-3.16,3.16-3.16c1.75,0,3.16,1.42,3.16,3.16
				c0,1.75-1.42,3.16-3.16,3.16C529.77,389.98,528.36,388.56,528.36,386.82z"/>
			<path id="XMLID_459_" class="st12" d="M512.93,367.36c0-0.89,0.72-1.61,1.61-1.61c0.89,0,1.61,0.72,1.61,1.61
				c0,0.89-0.72,1.61-1.61,1.61C513.65,368.98,512.93,368.25,512.93,367.36z"/>
			<path id="XMLID_460_" class="st12" d="M548.03,360.69c0-1.17,0.95-2.13,2.13-2.13c1.17,0,2.13,0.95,2.13,2.13
				s-0.95,2.13-2.13,2.13C548.98,362.82,548.03,361.86,548.03,360.69z"/>
			<path id="XMLID_461_" class="st12" d="M550.15,371.12c0-1.18,0.96-2.14,2.14-2.14s2.14,0.96,2.14,2.14s-0.96,2.14-2.14,2.14
				S550.15,372.3,550.15,371.12z"/>
			<path id="XMLID_555_" class="st12" d="M527.99,372.85c0-1.18,0.96-2.14,2.14-2.14s2.14,0.96,2.14,2.14s-0.96,2.14-2.14,2.14
				S527.99,374.03,527.99,372.85z"/>
		</g>
		<g id="XMLID_4_">
			<path id="XMLID_138_" class="st13" d="M525.55,326.62l-7.31,22.65c-0.46,1.42,0.13,2.95,1.41,3.71
				c2.33,1.38,6.84,3.15,14.56,3.15c7.73,0,12.23-1.77,14.56-3.15c1.28-0.76,1.87-2.29,1.41-3.71l-7.31-22.65H525.55z"/>
			<path id="XMLID_141_" class="st14" d="M534.21,350.64c-8.59,0-13.19-2.19-15.26-3.59l-0.72,2.22c-0.46,1.42,0.13,2.95,1.41,3.71
				c2.33,1.38,6.84,3.15,14.56,3.15c7.73,0,12.23-1.77,14.56-3.15c1.28-0.76,1.87-2.29,1.41-3.71l-0.72-2.22
				C547.4,348.45,542.8,350.64,534.21,350.64z"/>
			<path id="XMLID_143_" class="st14" d="M534.21,334.46c4.68,0,8.17-0.65,10.72-1.47l-2.06-6.37h-7.8
				c-0.29,0.01-0.57,0.01-0.87,0.01c-0.3,0-0.58-0.01-0.87-0.01h-7.8l-2.06,6.37C526.04,333.81,529.53,334.46,534.21,334.46z"/>
			<path id="XMLID_702_" class="st6" d="M525.33,351.59c0.24-1.45,2.35-17.44,3.35-24.97h-2.62l-5,27.11
				c2.58,1.2,6.76,2.41,13.14,2.41c7.73,0,12.23-1.77,14.56-3.15C537.59,356.9,525.02,353.5,525.33,351.59z"/>
			<linearGradient id="XMLID_104_" gradientUnits="userSpaceOnUse" x1="539.7059" y1="355.9574" x2="539.58" y2="327.4996">
				<stop  offset="0" style="stop-color:#71A6EA;stop-opacity:0"/>
				<stop  offset="1" style="stop-color:#364971"/>
			</linearGradient>
			<path id="XMLID_607_" class="st15" d="M545.19,354.58c-2.57,0.86-6.14,1.55-10.98,1.55v-29.51h7.58L545.19,354.58z"/>
		</g>
		<g id="XMLID_151_">
			<path id="XMLID_468_" class="st16" d="M553.99,193.31c-3.12-12.06-14.52-31.31-19.78-31.31c-5.27,0-16.66,19.24-19.78,31.31
				c-1.95,7.52-2.32,42.21,0,71.28l19.78-0.4l19.33,0.26C555.86,235.38,555.94,200.82,553.99,193.31z"/>
			<path id="XMLID_482_" class="st17" d="M512.83,224.97c0.01,1.18,0.01,2.36,0.03,3.57c14.11-3.27,28.24-3.28,42.41-0.05
				c0.02-1.22,0.04-2.42,0.06-3.61C541.31,221.33,526.75,221.37,512.83,224.97z"/>
			<path id="XMLID_212_" class="st17" d="M513.26,203.98c13.91-3.38,27.86-3.37,41.83,0c-0.12-2.69-0.19-3.42-0.19-3.42
				c-13.64-3.62-27.87-3.6-41.43,0.04C513.48,200.6,513.41,201.29,513.26,203.98z"/>
			<path id="XMLID_479_" class="st18" d="M544.04,213.29c-0.43,11.4-1.01,33.84-1.44,51.01l10.94,0.15
				c2.32-29.07,2.4-63.63,0.46-71.15c-3.12-12.06-14.52-31.31-19.78-31.31C540.56,166.9,544.79,193.3,544.04,213.29z"/>
			<path id="XMLID_165_" class="st19" d="M531.4,163.27c-4.11,8.32-6.79,28.43-6.79,47.38s0.72,72.84,0.72,72.84h-7.69
				c0,0-0.58-59.14-0.22-77.72C517.8,186.16,524.5,171.62,531.4,163.27z"/>
			<linearGradient id="XMLID_105_" gradientUnits="userSpaceOnUse" x1="534.0992" y1="162.2544" x2="534.0992" y2="263.9989">
				<stop  offset="0" style="stop-color:#FDD095;stop-opacity:0"/>
				<stop  offset="0.2796" style="stop-color:#E67686;stop-opacity:0"/>
				<stop  offset="1" style="stop-color:#A53563"/>
			</linearGradient>
			<path id="XMLID_177_" class="st20" d="M553.99,193.31c-3.12-12.06-14.52-31.31-19.78-31.31c-5.27,0-16.66,19.24-19.78,31.31
				c-1.95,7.52-2.32,42.21,0,71.28l19.78-0.4l19.33,0.26C555.86,235.38,555.94,200.82,553.99,193.31z"/>
		</g>
		<g id="XMLID_2_">
			<path id="XMLID_3_" class="st21" d="M520.63,325.18l-6.92,15.61c-1,4.08,15.64,8.17,16.64,4.09l1.05-17.45L520.63,325.18z"/>
			<path id="XMLID_129_" class="st22" d="M530.59,340.84l0.24-3.98c-3.54,0.94-11.15-0.92-13.88-3.39l-1.53,3.44
				C517.36,339.9,527.13,342.37,530.59,340.84z"/>
			<path id="XMLID_133_" class="st22" d="M522.39,325.55l-1.76-0.37l-1.49,3.35c2.86,1.86,8.52,3.14,12.02,2.73l0.23-3.84
				l-1.51-0.31C527.5,327.03,524.67,326.43,522.39,325.55z"/>
			<path id="XMLID_731_" class="st6" d="M524.62,326.01l-2.09-0.44l-7.33,17.77c2.65,1.94,8.17,3.39,11.78,3.19
				c-3.87-0.23-8.61-2.76-7.78-5.17C519.85,339.43,523.18,330.05,524.62,326.01z"/>
			<path id="XMLID_728_" class="st23" d="M521.43,345.93c4.12,0.99,8.43,0.97,8.92-1.05l1.05-17.45l-4.92-1.03
				C525.07,331.78,522.39,342.19,521.43,345.93z"/>
		</g>
		<g id="XMLID_124_">
			<path id="XMLID_137_" class="st21" d="M547.33,325.18l6.92,15.61c1,4.08-15.64,8.17-16.64,4.09l-1.05-17.45L547.33,325.18z"/>
			<path id="XMLID_136_" class="st22" d="M537.37,340.84l-0.24-3.98c3.54,0.94,11.15-0.92,13.88-3.39l1.53,3.44
				C550.6,339.9,540.83,342.37,537.37,340.84z"/>
			<path id="XMLID_134_" class="st22" d="M545.57,325.55l1.76-0.37l1.49,3.35c-2.86,1.86-8.52,3.14-12.02,2.73l-0.23-3.84l1.51-0.31
				C540.46,327.03,543.29,326.43,545.57,325.55z"/>
			<path id="XMLID_730_" class="st6" d="M540.29,346.48c3.69,0.47,10.12-1.18,12.79-3.37c-4.42,1.83-8.77,1.99-9.37-0.71
				c-0.44-2.01-2.11-11.22-2.94-15.84l-2.33,0.49L540.29,346.48z"/>
			<path id="XMLID_729_" class="st23" d="M542.94,326.1l4.87,19.49c3.71-1.09,6.9-2.94,6.44-4.8l-6.92-15.61L542.94,326.1z"/>
		</g>
		<g id="XMLID_140_">
			<path id="XMLID_139_" class="st24" d="M514.56,267.03c0.3,4.91-0.89,15.47-5.64,21.96c-4.35,5.96-12.91,11.15-24.3,16.41
				c-10.18,4.71-14.76,11.07-14.38,20.36l48.61-6.6L514.56,267.03z"/>
			<path id="XMLID_148_" class="st22" d="M518.13,310.41l-46.28,6.29c-0.7,1.53-1.16,3.18-1.41,4.94l48.08-6.53L518.13,310.41z"/>
			<path id="XMLID_700_" class="st25" d="M486.75,306.16c8.74-4.52,19.96-9.51,25.18-18.06c2.53-4.15,3.22-9.22,3.27-13.35
				l-0.64-7.71c0.3,4.91-0.89,15.47-5.64,21.96c-4.35,5.96-12.91,11.15-24.3,16.41c-9.3,4.3-13.91,9.99-14.35,18.02l-0.03,2.34
				l1.94-0.26C472.61,313.97,478.01,310.67,486.75,306.16z"/>
			<path id="XMLID_481_" class="st23" d="M515.68,280.61c-0.21,7.53-6.75,15.35-13.74,19.56c-6.98,4.2-17.77,8.12-23.12,13.27
				c-3.02,2.91-4.45,7.13-4.3,11.75l44.34-6.02L515.68,280.61z"/>
			
				<linearGradient id="XMLID_106_" gradientUnits="userSpaceOnUse" x1="1506.2012" y1="293.5774" x2="1470.2295" y2="311.3221" gradientTransform="matrix(-1 0 0 1 1992.8831 0)">
				<stop  offset="0" style="stop-color:#71A6EA;stop-opacity:0"/>
				<stop  offset="1" style="stop-color:#364971"/>
			</linearGradient>
			<path id="XMLID_559_" class="st26" d="M514.56,267.03c0.3,4.91-0.89,15.47-5.64,21.96c-4.35,5.96-12.91,11.15-24.3,16.41
				c-10.18,4.71-14.76,11.07-14.38,20.36l48.61-6.6L514.56,267.03z"/>
			<g id="XMLID_680_">
				<path id="XMLID_697_" class="st13" d="M483.09,329.81l23.04-3.13c1.9-0.26,3.4-1.74,3.67-3.64l0.39-2.7l-32.51,4.42l0.79,2.23
					C479.14,328.9,481.07,330.08,483.09,329.81z"/>
				<path id="XMLID_693_" class="st5" d="M498.56,321.92l11.62-1.58l-0.39,2.7c-0.27,1.9-1.77,3.38-3.67,3.64l-7.4,1.01
					L498.56,321.92z"/>
				
					<linearGradient id="XMLID_113_" gradientUnits="userSpaceOnUse" x1="1497.9353" y1="329.4478" x2="1499.365" y2="319.7575" gradientTransform="matrix(-1 0 0 1 1992.8831 0)">
					<stop  offset="0" style="stop-color:#71A6EA;stop-opacity:0"/>
					<stop  offset="1" style="stop-color:#364971"/>
				</linearGradient>
				<path id="XMLID_691_" class="st27" d="M483.09,329.81l23.04-3.13c1.9-0.26,3.4-1.74,3.67-3.64l0.39-2.7l-32.51,4.42l0.79,2.23
					C479.14,328.9,481.07,330.08,483.09,329.81z"/>
				<polygon id="XMLID_683_" class="st6" points="488.7,329.05 485.77,329.45 483.4,323.98 487.64,323.4 				"/>
			</g>
			<g id="XMLID_689_">
				<path id="XMLID_706_" class="st14" d="M488.54,334.34l13.05-1.77c1.07-0.14,1.92-0.96,2.12-2.02l0.68-3.64l-19.66,2.67
					l1.14,3.13C486.26,333.83,487.38,334.5,488.54,334.34z"/>
				<path id="XMLID_698_" class="st6" d="M489.9,329.01c0.58,2.62,1,3.53,2.92,3.56s8.77,0,8.77,0l-13.05,1.77l-1.92-4.9
					L489.9,329.01z"/>
				
					<linearGradient id="XMLID_116_" gradientUnits="userSpaceOnUse" x1="1491.3051" y1="332.5597" x2="1490.3748" y2="327.2105" gradientTransform="matrix(-1 0 0 1 1992.8831 0)">
					<stop  offset="0" style="stop-color:#71A6EA;stop-opacity:0"/>
					<stop  offset="1" style="stop-color:#364971"/>
				</linearGradient>
				<path id="XMLID_696_" class="st28" d="M503.71,330.56c-0.2,1.06-1.05,1.87-2.12,2.02l-1.33,0.18h0l0.38-5.33l3.74-0.51
					L503.71,330.56z"/>
			</g>
		</g>
		<g id="XMLID_153_">
			<path id="XMLID_161_" class="st29" d="M553.4,267.03c-0.3,4.91,0.89,15.47,5.64,21.96c4.35,5.96,12.91,11.15,24.3,16.41
				c10.18,4.71,14.76,11.07,14.38,20.36l-48.61-6.6L553.4,267.03z"/>
			<path id="XMLID_156_" class="st22" d="M549.83,310.41l46.28,6.29c0.7,1.53,1.16,3.18,1.41,4.94l-48.08-6.53L549.83,310.41z"/>
			<path id="XMLID_658_" class="st25" d="M581.21,306.16c-8.74-4.52-19.97-9.51-25.18-18.06c-2.53-4.15-3.22-9.22-3.27-13.35
				l0.64-7.71c-0.3,4.91,0.89,15.47,5.64,21.96c4.35,5.96,12.91,11.15,24.3,16.41c9.3,4.3,13.91,9.99,14.35,18.02l0.03,2.34
				l-1.94-0.26C595.35,313.97,589.95,310.67,581.21,306.16z"/>
			<path id="XMLID_211_" class="st30" d="M552.28,280.61c0.21,7.53,6.75,15.35,13.74,19.56c6.98,4.2,17.77,8.12,23.12,13.27
				c3.02,2.91,4.45,7.13,4.3,11.75l-44.34-6.02L552.28,280.61z"/>
			<linearGradient id="XMLID_117_" gradientUnits="userSpaceOnUse" x1="581.2786" y1="293.5774" x2="545.3069" y2="311.3221">
				<stop  offset="0" style="stop-color:#71A6EA;stop-opacity:0"/>
				<stop  offset="1" style="stop-color:#364971"/>
			</linearGradient>
			<path id="XMLID_556_" class="st31" d="M553.4,267.03c-0.3,4.91,0.89,15.47,5.64,21.96c4.35,5.96,12.91,11.15,24.3,16.41
				c10.18,4.71,14.76,11.07,14.38,20.36l-48.61-6.6L553.4,267.03z"/>
			<g id="XMLID_144_">
				<path id="XMLID_154_" class="st14" d="M579.42,334.34l-13.05-1.77c-1.07-0.14-1.92-0.96-2.12-2.02l-0.68-3.64l19.66,2.67
					l-1.14,3.13C581.7,333.83,580.58,334.5,579.42,334.34z"/>
				<path id="XMLID_606_" class="st6" d="M578.06,329.01c-0.58,2.62-1,3.53-2.92,3.56s-8.77,0-8.77,0l13.05,1.77l1.92-4.9
					L578.06,329.01z"/>
				<linearGradient id="XMLID_118_" gradientUnits="userSpaceOnUse" x1="566.3826" y1="332.5597" x2="565.4523" y2="327.2105">
					<stop  offset="0" style="stop-color:#71A6EA;stop-opacity:0"/>
					<stop  offset="1" style="stop-color:#364971"/>
				</linearGradient>
				<path id="XMLID_695_" class="st32" d="M564.25,330.56c0.2,1.06,1.05,1.87,2.12,2.02l1.33,0.18h0l-0.38-5.33l-3.74-0.51
					L564.25,330.56z"/>
			</g>
			<g id="XMLID_601_">
				<path id="XMLID_155_" class="st13" d="M584.87,329.81l-23.04-3.13c-1.9-0.26-3.4-1.74-3.67-3.64l-0.39-2.7l32.51,4.42
					l-0.79,2.23C588.82,328.9,586.89,330.08,584.87,329.81z"/>
				<path id="XMLID_662_" class="st5" d="M569.4,321.92l-11.62-1.58l0.39,2.7c0.27,1.9,1.77,3.38,3.67,3.64l7.4,1.01L569.4,321.92z"
					/>
				<linearGradient id="XMLID_120_" gradientUnits="userSpaceOnUse" x1="573.0128" y1="329.4478" x2="574.4424" y2="319.7575">
					<stop  offset="0" style="stop-color:#71A6EA;stop-opacity:0"/>
					<stop  offset="1" style="stop-color:#364971"/>
				</linearGradient>
				<path id="XMLID_557_" class="st33" d="M584.87,329.81l-23.04-3.13c-1.9-0.26-3.4-1.74-3.67-3.64l-0.39-2.7l32.51,4.42
					l-0.79,2.23C588.82,328.9,586.89,330.08,584.87,329.81z"/>
				<polygon id="XMLID_678_" class="st6" points="579.26,329.05 582.19,329.45 584.56,323.98 580.32,323.4 				"/>
			</g>
			<polygon id="XMLID_673_" class="st34" points="571.72,328.02 573.9,328.32 574.22,322.57 571.92,322.26 			"/>
		</g>
		<g id="XMLID_415_">
			<linearGradient id="XMLID_122_" gradientUnits="userSpaceOnUse" x1="495.4765" y1="423.6485" x2="495.4765" y2="332.5717">
				<stop  offset="0" style="stop-color:#EE7249"/>
				<stop  offset="0.1101" style="stop-color:#F28958"/>
				<stop  offset="0.2383" style="stop-color:#F49B63"/>
				<stop  offset="0.3906" style="stop-color:#F6A86C"/>
				<stop  offset="0.5886" style="stop-color:#F8B071"/>
				<stop  offset="1" style="stop-color:#F8B272"/>
			</linearGradient>
			<polygon id="XMLID_213_" class="st35" points="488.54,334.34 476.62,423.65 514.33,423.65 501.59,332.57 			"/>
			<path id="XMLID_181_" class="st11" d="M498.7,332.96l3.73,37.63c0.3,3.01-2.07,5.62-5.09,5.62H493c-3.05,0-5.42-2.64-5.09-5.67
				l4-36.66L498.7,332.96z"/>
			<path id="XMLID_408_" class="st12" d="M493.44,333.68l-1.19,20.3c-0.09,1.53,1.13,2.82,2.66,2.82h0.41c1.53,0,2.74-1.28,2.66-2.8
				l-1.12-20.78L493.44,333.68z"/>
			<circle id="XMLID_413_" class="st12" cx="497.4" cy="369.59" r="2.86"/>
			<circle id="XMLID_418_" class="st11" cx="503.09" cy="381.84" r="3.49"/>
			<circle id="XMLID_709_" class="st11" cx="493.18" cy="381.61" r="2.29"/>
			<circle id="XMLID_716_" class="st11" cx="505.38" cy="389.98" r="2.29"/>
			<path id="XMLID_414_" class="st12" d="M490.59,362.13c0-0.91,0.74-1.66,1.66-1.66s1.66,0.74,1.66,1.66
				c0,0.91-0.74,1.66-1.66,1.66S490.59,363.04,490.59,362.13z"/>
			<path id="XMLID_416_" class="st11" d="M485.75,377.05c0-0.46,0.38-0.84,0.84-0.84c0.46,0,0.84,0.38,0.84,0.84
				c0,0.46-0.38,0.84-0.84,0.84C486.12,377.89,485.75,377.52,485.75,377.05z"/>
		</g>
		<g id="XMLID_428_">
			<linearGradient id="XMLID_125_" gradientUnits="userSpaceOnUse" x1="572.4839" y1="423.6485" x2="572.4839" y2="332.5717">
				<stop  offset="0" style="stop-color:#EE7249"/>
				<stop  offset="0.1101" style="stop-color:#F28958"/>
				<stop  offset="0.2383" style="stop-color:#F49B63"/>
				<stop  offset="0.3906" style="stop-color:#F6A86C"/>
				<stop  offset="0.5886" style="stop-color:#F8B071"/>
				<stop  offset="1" style="stop-color:#F8B272"/>
			</linearGradient>
			<polygon id="XMLID_438_" class="st36" points="579.42,334.34 591.34,423.65 553.63,423.65 566.37,332.57 			"/>
			<path id="XMLID_436_" class="st11" d="M569.26,332.96l-3.73,37.63c-0.3,3.01,2.07,5.62,5.09,5.62h4.34
				c3.05,0,5.42-2.64,5.09-5.67l-4-36.66L569.26,332.96z"/>
			<path id="XMLID_433_" class="st12" d="M574.52,333.68l1.19,20.3c0.09,1.53-1.13,2.82-2.66,2.82h-0.41c-1.53,0-2.74-1.28-2.66-2.8
				l1.12-20.78L574.52,333.68z"/>
			<circle id="XMLID_432_" class="st12" cx="570.56" cy="369.59" r="2.86"/>
			<circle id="XMLID_431_" class="st11" cx="564.87" cy="381.84" r="3.49"/>
			<path id="XMLID_587_" class="st11" d="M575.99,380.48c0-1.18-0.96-2.14-2.14-2.14c-1.18,0-2.14,0.96-2.14,2.14
				c0,1.18,0.96,2.14,2.14,2.14C575.03,382.62,575.99,381.66,575.99,380.48z"/>
			<path id="XMLID_588_" class="st11" d="M584.05,384.85c0-1.18-0.96-2.14-2.14-2.14c-1.18,0-2.14,0.96-2.14,2.14
				c0,1.18,0.96,2.14,2.14,2.14C583.09,386.99,584.05,386.04,584.05,384.85z"/>
			<path id="XMLID_430_" class="st12" d="M577.37,362.13c0-0.91-0.74-1.66-1.66-1.66c-0.91,0-1.66,0.74-1.66,1.66
				c0,0.91,0.74,1.66,1.66,1.66C576.63,363.78,577.37,363.04,577.37,362.13z"/>
			<path id="XMLID_429_" class="st11" d="M582.21,377.05c0-0.46-0.38-0.84-0.84-0.84s-0.84,0.38-0.84,0.84
				c0,0.46,0.38,0.84,0.84,0.84S582.21,377.52,582.21,377.05z"/>
		</g>
		<g id="XMLID_465_">
			<g id="XMLID_553_">
				<path id="XMLID_1_" class="st37" d="M533.98,327.5c9.73,0,14.6-2.92,14.6-2.92s6.81-67.63,4.87-73.22
					c-1.95-5.59-13.62-32.61-19.46-32.61c-5.84,0-17.52,27.02-19.46,32.61c-1.95,5.59,4.87,73.22,4.87,73.22
					S524.25,327.5,533.98,327.5z"/>
				<path id="XMLID_119_" class="st14" d="M543.34,229.59c-3.38-6-6.89-10.83-9.36-10.83c-2.47,0-5.99,4.85-9.37,10.85
					C530.92,228.48,537.17,228.45,543.34,229.59z"/>
				<path id="XMLID_123_" class="st3" d="M514.43,264.59c0.04,0.79,0.08,1.61,0.13,2.44c12.95-3.74,25.9-3.79,38.85-0.13
					c0.05-0.84,0.09-1.65,0.13-2.44C540.5,260.75,527.47,260.8,514.43,264.59z"/>
				<path id="XMLID_121_" class="st3" d="M516.67,295.4c0.07,0.81,0.14,1.62,0.21,2.43c11.4-2.9,22.8-2.94,34.21-0.12
					c0.07-0.8,0.14-1.61,0.21-2.43C539.76,292.39,528.21,292.43,516.67,295.4z"/>
				<path id="XMLID_514_" class="st38" d="M545.43,252.8c1.16,10.02-2.79,55.9-4.44,74.15c5.05-0.85,7.59-2.36,7.59-2.36
					s6.81-67.63,4.87-73.22c-1.95-5.59-13.62-32.61-19.46-32.61C537.86,220.64,543.97,240.22,545.43,252.8z"/>
				<path id="XMLID_564_" class="st25" d="M519.14,264.49c0.66,14.57,3.64,55.26,4.1,61.61c1.36,0.4,3.08,0.78,5.16,1.05l0,0
					c0,0-1.58-24.29-3.79-55.78c-1.87-26.59,6.21-47.78,9.37-52.62C526.13,225.98,518.37,247.52,519.14,264.49z"/>
				<g id="XMLID_147_">
					<path id="XMLID_464_" class="st14" d="M521.81,246.08c8.12-2.36,16.23-2.39,24.35-0.08l-0.9-1.25
						c-1.96-2.71-4.96-4.54-8.29-4.87c-2-0.19-4-0.19-6,0.02c-3.31,0.35-6.29,2.18-8.23,4.88L521.81,246.08z"/>
					<path id="XMLID_708_" class="st6" d="M533.38,244.31c1.77-0.03,3.54,0.06,5.3,0.25l3.06-3.06c-1.23-0.75-2.6-1.26-4.05-1.5
						L533.38,244.31z"/>
					<path id="XMLID_704_" class="st6" d="M529.81,244.53l4.78-4.78c-1.08-0.02-2.16,0.02-3.24,0.12l-5.19,5.19
						C527.38,244.83,528.59,244.66,529.81,244.53z"/>
				</g>
			</g>
		</g>
		<g id="XMLID_190_">
			<path id="XMLID_467_" class="st1" d="M523.49,326.17c2.42,0.68,5.91,1.33,10.49,1.33c4.85,0,8.49-0.72,10.92-1.45
				c-0.49-1.8-6.88-25.31-10.69-25.31C530.25,300.74,523.49,326.16,523.49,326.17z"/>
			<path id="XMLID_488_" class="st5" d="M544.9,326.05c-0.49-1.8-6.88-25.31-10.69-25.31c0.92,2.63,3.18,15.76,4.32,26.53
				C541.17,327,543.3,326.53,544.9,326.05z"/>
			<path id="XMLID_512_" class="st6" d="M529.78,311.4c-0.67,4.04-1.7,10.81-2.42,15.61c0.95,0.15,1.98,0.27,3.09,0.36
				c0.2-2.85,0.5-6.79,0.95-11.82c1.02-11.6,2.11-14.57,2.81-14.81C532.67,301.11,530.91,304.63,529.78,311.4z"/>
		</g>
	</g>
	<g id="XMLID_1188_">
		<path id="XMLID_715_" class="st39" d="M746.02,178.14c-16.77,0-30.37,13.6-30.37,30.37c0,5.37,1.4,10.41,3.85,14.78
			c-0.15-0.02-0.31-0.03-0.44-0.03c-7.28,0-13.19,5.76-13.5,12.97c-3.21-2.75-7.38-4.41-11.93-4.41c-10.2,0-18.48,8.27-18.48,18.48
			c0,0.19,0.02,0.36,0.03,0.55c-1.85-0.34-3.76-0.55-5.71-0.55c-16.77,0-30.37,13.6-30.37,30.37c0,14.82,10.6,27.12,24.63,29.82
			c-0.72,2.73-1.13,5.59-1.13,8.53c0,15.88,10.89,29.17,25.6,32.9c-3.45,2.85-5.64,7.16-5.64,11.98c0,0.5,0.03,0.97,0.09,1.45
			c-0.55-0.03-1.09-0.07-1.64-0.07c-4.8,0-9.16,1.85-12.44,4.85c-5.2-14.36-18.94-24.61-35.07-24.61
			c-20.58,0-37.28,16.68-37.28,37.28c0,3.9,0.62,7.66,1.73,11.19c-2.92,0.6-5.57,1.9-7.81,3.69c-6.49-9.67-17.52-16.05-30.03-16.05
			c-19.96,0-36.13,16.18-36.13,36.13c0,1.4,0.1,2.79,0.26,4.14c-3.26-2.92-7.57-4.73-12.31-4.73c-7.71,0-14.31,4.72-17.07,11.42
			c-2.77-6.7-9.37-11.42-17.06-11.42c-3.78,0-7.28,1.15-10.2,3.09c0-0.22,0.02-0.44,0.02-0.65c0-23.33-18.92-42.25-42.25-42.25
			c-8,0-15.48,2.22-21.86,6.1C400.4,370.58,388.83,361,375.01,361c-8.39,0-15.93,3.54-21.28,9.16c-3.21-2.96-7.47-4.79-12.17-4.87
			c1.9-4.73,2.94-9.9,2.94-15.31c0-22.85-18.51-41.38-41.36-41.38c-8.89,0-17.13,2.82-23.88,7.59c-3.57-4.75-8.53-8.41-14.31-10.29
			c7.01-7.61,11.3-17.76,11.3-28.9c0-23.55-19.09-42.62-42.62-42.62c-2.1,0-4.15,0.15-6.17,0.44c0.91-3.5,1.38-7.2,1.38-10.99
			c0-24.22-19.62-43.84-43.84-43.84c-13.66,0-25.84,6.24-33.87,16.03c-5.37-7.11-13.84-11.71-23.41-11.71
			c-4.96,0-9.61,1.23-13.71,3.4c0.02-0.53,0.05-1.06,0.05-1.59c0-27.53-22.32-49.85-49.87-49.85c-8.2,0-15.95,2-22.77,5.5
			c1.44-3.47,2.26-7.28,2.26-11.28c0-16.2-13.14-29.35-29.35-29.35c-5.21,0-10.1,1.35-14.34,3.76v51.17v279.57h386.29h104.07h33.36
			h67.77H750V238.64v-60.21C748.68,178.26,747.37,178.14,746.02,178.14z"/>
		<g id="XMLID_684_">
			<path id="XMLID_751_" class="st40" d="M581.91,435.65h-39.1c0-10.8,8.75-19.55,19.55-19.55S581.91,424.85,581.91,435.65z"/>
			<path id="XMLID_746_" class="st40" d="M341.03,435.65h-50.01c0-13.81,11.19-25,25-25C329.84,410.64,341.03,421.84,341.03,435.65z
				"/>
			<path id="XMLID_736_" class="st40" d="M451.15,435.65h-72.76c-2.12-2.87-3.38-6.41-3.38-10.25c0-9.5,7.69-17.21,17.21-17.21
				c9.37,0,16.95,7.49,17.19,16.8c4.53-4.56,10.78-7.38,17.72-7.38C438.53,417.6,448.14,425.22,451.15,435.65z"/>
			<path id="XMLID_755_" class="st40" d="M750,372.45v63.2H612.31c6.94-12.78,20.48-21.45,36.04-21.45c7.09,0,13.78,1.81,19.6,4.99
				c2.58-7.45,9.64-12.84,17.98-12.84c1.83,0,3.57,0.27,5.25,0.75c1.16-21.6,19.04-38.74,40.93-38.74
				C738.53,368.36,744.6,369.83,750,372.45z"/>
			<path id="XMLID_754_" class="st40" d="M750,264.65v86.24c-0.84,0.09-1.69,0.12-2.55,0.12c-15.23,0-27.58-12.36-27.58-27.58
				c0-10.66,6.07-19.89,14.94-24.49c-4.22-3.59-6.9-8.92-6.9-14.9c0-10.8,8.75-19.55,19.55-19.55
				C748.32,264.48,749.16,264.53,750,264.65z"/>
			<path id="XMLID_713_" class="st40" d="M244.19,397.42c-4.91,0-9.54,1.21-13.62,3.32c0.75-2.1,1.18-4.34,1.18-6.7
				c0-10.96-8.87-19.83-19.83-19.83c-6.43,0-12.13,3.08-15.76,7.83c-0.15-11.23-9.3-20.29-20.56-20.29c-4.29,0-8.27,1.32-11.55,3.57
				c0.34-1.91,0.55-3.86,0.55-5.86c0-17.57-14.24-31.81-31.81-31.81c-11.67,0-21.84,6.31-27.38,15.66c0.02-0.22,0.03-0.43,0.03-0.67
				c0-10.89-8.48-19.77-19.18-20.49c9.93-3.32,17.13-12.66,17.13-23.72c0-13.81-11.21-25-25.02-25c-3.95,0-7.66,0.94-10.97,2.56
				c1.57-3.95,2.48-8.24,2.48-12.75c0-18.9-15.33-34.23-34.23-34.23c-6.72,0-12.97,1.97-18.25,5.3c-2.99-3.81-7.33-6.51-12.32-7.35
				c4.63-4.53,7.52-10.85,7.52-17.84c0-9.3-5.08-17.4-12.6-21.71v78.81v169.44h215.55h57.29v-0.02c0.8-2.65,1.21-5.47,1.21-8.37
				C274.05,410.78,260.69,397.42,244.19,397.42z"/>
		</g>
		<g id="XMLID_1100_">
			<path id="XMLID_1063_" class="st41" d="M185.54,435.65h-62.71c3.93-13.62,16.48-23.57,31.36-23.57
				C169.06,412.08,181.61,422.03,185.54,435.65z"/>
			<path id="XMLID_752_" class="st41" d="M105.35,420.37c0,5.38-0.99,10.53-2.79,15.28H0V299.86c21.3,4.51,37.28,23.45,37.28,46.09
				c0,5.67-0.99,11.11-2.84,16.15c0.03,0,0.05-0.02,0.09-0.02c9.37,0,17.09,7.04,18.22,16.1c3.03-0.67,6.17-1.03,9.4-1.03
				C86,377.16,105.35,396.51,105.35,420.37z"/>
			<path id="XMLID_717_" class="st41" d="M750,391.74c-0.69-0.06-1.39-0.11-2.1-0.11c-13.51,0-24.46,10.95-24.46,24.46
				c0,0.15,0.02,0.29,0.02,0.44c-1.15-0.27-2.35-0.44-3.59-0.44c-8.54,0-15.47,6.93-15.47,15.47c0,1.38,0.2,2.71,0.54,3.98
				l45.06,0.1V391.74z"/>
		</g>
		<g id="XMLID_1085_">
			
				<ellipse id="XMLID_584_" transform="matrix(0.758 -0.6523 0.6523 0.758 -123.0145 199.9291)" class="st40" cx="207.92" cy="265.74" rx="13.46" ry="13.46"/>
			<path id="XMLID_1077_" class="st40" d="M694.44,270.37c0-5.5,4.46-9.96,9.96-9.96c5.5,0,9.96,4.46,9.96,9.96
				c0,5.5-4.46,9.96-9.96,9.96C698.9,280.32,694.44,275.87,694.44,270.37z"/>
			<path id="XMLID_1070_" class="st40" d="M182.69,334.71c0-5.2,4.22-9.42,9.42-9.42c5.2,0,9.42,4.22,9.42,9.42
				c0,5.2-4.22,9.42-9.42,9.42C186.91,344.13,182.69,339.91,182.69,334.71z"/>
			<path id="XMLID_1072_" class="st40" d="M246.47,373.97c0-3.48,2.82-6.29,6.29-6.29c3.48,0,6.29,2.82,6.29,6.29
				c0,3.48-2.82,6.29-6.29,6.29C249.29,380.27,246.47,377.45,246.47,373.97z"/>
			<path id="XMLID_1078_" class="st40" d="M359.07,412.08c0-3.48,2.82-6.29,6.29-6.29s6.29,2.82,6.29,6.29s-2.82,6.29-6.29,6.29
				S359.07,415.56,359.07,412.08z"/>
			<path id="XMLID_1076_" class="st40" d="M598.1,421.92c0-3.48,2.82-6.29,6.29-6.29c3.48,0,6.29,2.82,6.29,6.29
				s-2.82,6.29-6.29,6.29C600.91,428.21,598.1,425.39,598.1,421.92z"/>
			<path id="XMLID_1074_" class="st40" d="M104.45,317.82c0-3.48,2.82-6.29,6.29-6.29s6.29,2.82,6.29,6.29
				c0,3.48-2.82,6.29-6.29,6.29S104.45,321.3,104.45,317.82z"/>
			<circle id="XMLID_1068_" class="st40" cx="240.05" cy="275.04" r="6.43"/>
		</g>
		<g id="XMLID_1079_">
			<path id="XMLID_1065_" class="st39" d="M681.16,211.91c0-4.94,4-8.94,8.94-8.94s8.94,4,8.94,8.94c0,4.94-4,8.94-8.94,8.94
				S681.16,216.85,681.16,211.91z"/>
			<circle id="XMLID_1080_" class="st39" cx="598.1" cy="343.31" r="6.08"/>
			<circle id="XMLID_1081_" class="st39" cx="367.62" cy="343.31" r="6.08"/>
			<circle id="XMLID_1084_" class="st39" cx="295.73" cy="278.25" r="10.55"/>
		</g>
		<g id="XMLID_1088_">
			<circle id="XMLID_1086_" class="st41" cx="66.21" cy="351.95" r="13.53"/>
			<path id="XMLID_1091_" class="st41" d="M118.27,402.93c0-2.93,2.38-5.31,5.31-5.31c2.93,0,5.31,2.38,5.31,5.31
				c0,2.94-2.38,5.31-5.31,5.31C120.65,408.24,118.27,405.86,118.27,402.93z"/>
			<circle id="XMLID_1094_" class="st41" cx="49.16" cy="325.98" r="5.31"/>
			
				<ellipse id="XMLID_1093_" transform="matrix(0.2305 -0.9731 0.9731 0.2305 -242.17 510.2526)" class="st41" cx="201.53" cy="408.24" rx="10.44" ry="10.44"/>
			
				<ellipse id="XMLID_1105_" transform="matrix(0.7071 -0.7071 0.7071 0.7071 -183.2141 93.0789)" class="st41" cx="20.75" cy="267.7" rx="10.44" ry="10.44"/>
		</g>
		<g id="XMLID_1099_">
			<path id="XMLID_1097_" class="st41" d="M721.29,382.07c0-2.36,1.91-4.27,4.27-4.27c2.36,0,4.27,1.91,4.27,4.27
				c0,2.36-1.91,4.27-4.27,4.27C723.2,386.34,721.29,384.43,721.29,382.07z"/>
			<path id="XMLID_1111_" class="st41" d="M702.52,400.31c0-4.79,3.88-8.67,8.67-8.67c4.79,0,8.67,3.88,8.67,8.67
				s-3.88,8.67-8.67,8.67C706.41,408.98,702.52,405.1,702.52,400.31z"/>
		</g>
		<g id="XMLID_1139_">
			<g>
				<path id="XMLID_320_" class="st42" d="M682.5,243.36c2.02-5.56,6.61-9.86,12.35-11.47c-0.41-0.03-0.83-0.06-1.25-0.06
					c-7.68,0-14.27,4.69-17.05,11.37c0.69-0.05,1.38-0.1,2.08-0.1C679.95,243.09,681.24,243.2,682.5,243.36z"/>
				<path id="XMLID_319_" class="st42" d="M706.28,232.36c-2.01-0.75-4.17-1.17-6.43-1.17c-1.73,0-3.4,0.26-4.99,0.7
					c4.07,0.27,7.77,1.85,10.7,4.33C705.61,234.88,705.86,233.58,706.28,232.36z"/>
				<path id="XMLID_318_" class="st42" d="M525.08,422.7c1.63-18.44,17.09-32.91,35.96-32.91c10.22,0,19.43,4.26,26,11.08
					c0.9-1.18,1.93-2.25,3.09-3.18c-6.48-9.67-17.51-16.05-30.03-16.05c-19.95,0-36.12,16.17-36.12,36.12c0,1.4,0.1,2.78,0.25,4.14
					C524.52,422.17,524.81,422.43,525.08,422.7z"/>
				<path id="XMLID_317_" class="st42" d="M525.08,422.7c-0.27-0.28-0.56-0.53-0.85-0.79c0.15,1.34,0.39,2.66,0.69,3.96
					C524.92,424.8,524.99,423.75,525.08,422.7z"/>
				<path id="XMLID_316_" class="st42" d="M587.04,400.87c4.47,4.63,7.69,10.45,9.18,16.94c0-0.01,0-0.03,0-0.04
					c0-7.43-2.25-14.33-6.1-20.08C588.97,398.62,587.94,399.69,587.04,400.87z"/>
				<path id="XMLID_315_" class="st42" d="M609.06,395.16c-0.67-2.8-1.04-5.72-1.04-8.72c0-20.58,16.69-37.27,37.27-37.27
					c1.68,0,3.32,0.12,4.94,0.34c-5.03-2.54-10.72-3.97-16.74-3.97c-20.58,0-37.27,16.69-37.27,37.27c0,3.9,0.6,7.67,1.72,11.2
					c1.21-0.25,2.46-0.38,3.75-0.38C604.31,393.62,606.8,394.17,609.06,395.16z"/>
				<path id="XMLID_314_" class="st42" d="M619.39,417.3c2.89,1.18,5.96,2.01,9.16,2.43c-3.1-1.56-5.96-3.54-8.49-5.87
					C619.95,415.04,619.72,416.19,619.39,417.3z"/>
				<path id="XMLID_313_" class="st42" d="M609.06,395.16c-2.26-0.99-4.75-1.54-7.37-1.54c-1.28,0-2.54,0.13-3.75,0.38
					c3.33,10.59,11.27,19.13,21.46,23.3c0.33-1.11,0.56-2.26,0.67-3.44C614.71,408.93,610.81,402.46,609.06,395.16z"/>
				<path id="XMLID_312_" class="st42" d="M671.54,312.32c0-0.47,0.05-0.92,0.07-1.38c-0.71,0.05-1.42,0.11-2.14,0.11
					c-1.97,0-3.89-0.2-5.75-0.56c-0.71,2.73-1.13,5.58-1.13,8.54c0,15.87,10.89,29.16,25.6,32.9c2.69-2.23,6.14-3.57,9.91-3.57
					c3.39,0,6.52,1.1,9.08,2.95c5.36-1.76,10.12-4.82,13.93-8.8c-4.67,2.42-9.97,3.81-15.59,3.81
					C686.76,346.31,671.54,331.09,671.54,312.32z"/>
				<path id="XMLID_311_" class="st42" d="M688.19,351.93c2.69,0.68,5.48,1.08,8.38,1.08c3.71,0,7.27-0.61,10.61-1.71
					c-2.56-1.85-5.69-2.95-9.08-2.95C694.34,348.35,690.88,349.7,688.19,351.93z"/>
				<path id="XMLID_310_" class="st42" d="M648.26,273.47c0-7.59,2.8-14.51,7.4-19.83c-9.83,5.03-16.57,15.24-16.57,27.04
					c0,14.81,10.6,27.13,24.63,29.82c0.81-3.14,2.06-6.1,3.68-8.82C656.19,297.2,648.26,286.27,648.26,273.47z"/>
				<path id="XMLID_309_" class="st42" d="M671.61,310.94c0.11-2.65,0.51-5.21,1.19-7.67c-1.87-0.36-3.67-0.91-5.4-1.6
					c-1.62,2.72-2.87,5.68-3.68,8.82c1.86,0.36,3.78,0.56,5.75,0.56C670.19,311.05,670.9,310.99,671.61,310.94z"/>
				<path id="XMLID_308_" class="st42" d="M697.24,268.4c0.46-0.09,0.91-0.21,1.36-0.34c-0.54-0.04-1.08-0.1-1.61-0.18
					C697.07,268.05,697.16,268.22,697.24,268.4z"/>
				<path id="XMLID_307_" class="st42" d="M675.17,250.85c2.27,0.43,4.45,1.11,6.51,2.02c-0.18-1.04-0.3-2.11-0.3-3.21
					c0-2.21,0.41-4.33,1.12-6.29c-1.27-0.16-2.55-0.27-3.86-0.27c-0.7,0-1.39,0.06-2.08,0.1c-0.91,2.19-1.42,4.58-1.42,7.1
					C675.14,250.48,675.17,250.66,675.17,250.85z"/>
				<path id="XMLID_306_" class="st42" d="M681.68,252.87c-2.06-0.91-4.24-1.59-6.51-2.02c0.29,9.94,8.43,17.91,18.44,17.91
					c1.24,0,2.46-0.13,3.63-0.36c-0.08-0.18-0.17-0.34-0.25-0.52C689.2,266.67,683.04,260.61,681.68,252.87z"/>
				<path id="XMLID_305_" class="st42" d="M395.37,389.87c2.43-2.45,5.16-4.61,8.12-6.4c-3.1-12.88-14.66-22.47-28.49-22.47
					c-2.69,0-5.28,0.39-7.75,1.07C382.43,362.65,394.62,374.73,395.37,389.87z"/>
				<path id="XMLID_304_" class="st42" d="M335.34,349.16c0,7.13-1.8,13.84-4.98,19.7c3.06-2.24,6.82-3.58,10.9-3.58
					c0.11,0,0.21,0.01,0.31,0.02c1.89-4.74,2.94-9.91,2.94-15.32c0-22.85-18.52-41.37-41.37-41.37c-0.3,0-0.59,0.02-0.89,0.02
					C321.13,312.46,335.34,329.15,335.34,349.16z"/>
				<path id="XMLID_303_" class="st42" d="M323.77,377.84c-7.33,7.62-17.56,12.43-28.91,12.67c2.68,0.54,5.45,0.83,8.28,0.83
					c7.19,0,13.95-1.84,19.84-5.06c-0.11-0.83-0.19-1.67-0.19-2.53C322.78,381.68,323.14,379.7,323.77,377.84z"/>
				<path id="XMLID_302_" class="st42" d="M341.56,365.29c-0.11,0-0.21-0.02-0.31-0.02c-4.08,0-7.84,1.34-10.9,3.58
					c-1.79,3.29-4.01,6.31-6.59,8.98c-0.63,1.86-0.98,3.84-0.98,5.9c0,0.86,0.08,1.7,0.19,2.53
					C331.37,381.68,337.99,374.26,341.56,365.29z"/>
				<path id="XMLID_301_" class="st42" d="M248.73,305.31c2.27-0.56,4.63-0.9,7.08-0.9c3.19,0,6.26,0.53,9.14,1.47
					c7.01-7.6,11.3-17.74,11.3-28.9c0-15.82-8.62-29.62-21.42-36.97c7.7,7.71,12.46,18.36,12.46,30.11
					C267.29,284.74,259.94,297.63,248.73,305.31z"/>
				<path id="XMLID_300_" class="st42" d="M213.12,228.14c0,0.32-0.02,0.64-0.02,0.97c3.68-1.04,7.56-1.6,11.57-1.6
					c1.35,0,2.69,0.07,4.01,0.19c0.11-1.28,0.18-2.57,0.18-3.87c0-24.21-19.63-43.84-43.84-43.84c-6.93,0-13.48,1.61-19.3,4.47
					c1.18-0.09,2.36-0.16,3.57-0.16C193.49,184.3,213.12,203.93,213.12,228.14z"/>
				<path id="XMLID_299_" class="st42" d="M213.09,229.11c-0.09,4.01-0.71,7.9-1.81,11.57c4.84-2.98,10.31-5.02,16.18-5.87
					c0.59-2.3,1-4.68,1.21-7.11c-1.32-0.12-2.65-0.19-4.01-0.19C220.65,227.51,216.77,228.07,213.09,229.11z"/>
			</g>
		</g>
		<g id="XMLID_1143_">
			<radialGradient id="SVGID_1_" cx="501.1694" cy="368.4463" r="284.7043" gradientUnits="userSpaceOnUse">
				<stop  offset="0" style="stop-color:#D37575"/>
				<stop  offset="0.9946" style="stop-color:#58448B;stop-opacity:0"/>
			</radialGradient>
			<path class="st43" d="M746.02,178.14c-16.77,0-30.37,13.6-30.37,30.37c0,5.37,1.4,10.41,3.85,14.78
				c-0.15-0.02-0.31-0.03-0.44-0.03c-7.28,0-13.19,5.76-13.5,12.97c-3.21-2.75-7.38-4.41-11.93-4.41c-10.2,0-18.48,8.27-18.48,18.48
				c0,0.19,0.02,0.36,0.03,0.55c-1.85-0.34-3.76-0.55-5.71-0.55c-16.77,0-30.37,13.6-30.37,30.37c0,14.82,10.6,27.12,24.63,29.82
				c-0.72,2.73-1.13,5.59-1.13,8.53c0,15.88,10.89,29.17,25.6,32.9c-3.45,2.85-5.64,7.16-5.64,11.98c0,0.5,0.03,0.97,0.09,1.45
				c-0.55-0.03-1.09-0.07-1.64-0.07c-4.8,0-9.16,1.85-12.44,4.85c-5.2-14.36-18.94-24.61-35.07-24.61
				c-20.58,0-37.28,16.68-37.28,37.28c0,3.9,0.62,7.66,1.73,11.19c-2.92,0.6-5.57,1.9-7.81,3.69c-6.49-9.67-17.52-16.05-30.03-16.05
				c-19.96,0-36.13,16.18-36.13,36.13c0,1.4,0.1,2.79,0.26,4.14c-3.26-2.92-7.57-4.73-12.31-4.73c-7.71,0-14.31,4.72-17.07,11.42
				c-2.77-6.7-9.37-11.42-17.06-11.42c-3.78,0-7.28,1.15-10.2,3.09c0-0.22,0.02-0.44,0.02-0.65c0-23.33-18.92-42.25-42.25-42.25
				c-8,0-15.48,2.22-21.86,6.1C400.4,370.58,388.83,361,375.01,361c-8.39,0-15.93,3.54-21.28,9.16c-3.21-2.96-7.47-4.79-12.17-4.87
				c1.9-4.73,2.94-9.9,2.94-15.31c0-22.85-18.51-41.38-41.36-41.38c-8.89,0-17.13,2.82-23.88,7.59c-3.57-4.75-8.53-8.41-14.31-10.29
				c7.01-7.61,11.3-17.76,11.3-28.9c0-23.55-19.09-42.62-42.62-42.62c-2.1,0-4.15,0.15-6.17,0.44c0.91-3.5,1.38-7.2,1.38-10.99
				c0-24.22-19.62-43.84-43.84-43.84c-13.66,0-25.84,6.24-33.87,16.03c-5.37-7.11-13.84-11.71-23.41-11.71
				c-4.96,0-9.61,1.23-13.71,3.4c0.02-0.53,0.05-1.06,0.05-1.59c0-27.53-22.32-49.85-49.87-49.85c-8.2,0-15.95,2-22.77,5.5
				c1.44-3.47,2.26-7.28,2.26-11.28c0-16.2-13.14-29.35-29.35-29.35c-5.21,0-10.1,1.35-14.34,3.76v51.17v279.57h386.29h104.07h33.36
				h67.77H750V238.64v-60.21C748.68,178.26,747.37,178.14,746.02,178.14z"/>
		</g>
	</g>
	<g id="XMLID_1241_">
		<g id="XMLID_1187_">
			<circle id="XMLID_1184_" class="st44" cx="630.75" cy="197.98" r="7.76"/>
			<path id="XMLID_1178_" class="st45" d="M630.75,207.07L630.75,207.07c-0.72,0-1.31-0.59-1.31-1.31V190.2
				c0-0.72,0.59-1.31,1.31-1.31l0,0c0.72,0,1.31,0.59,1.31,1.31v15.56C632.07,206.49,631.48,207.07,630.75,207.07z"/>
			<path id="XMLID_1183_" class="st45" d="M639.85,197.98L639.85,197.98c0,0.72-0.59,1.31-1.31,1.31h-15.56
				c-0.72,0-1.31-0.59-1.31-1.31l0,0c0-0.72,0.59-1.31,1.31-1.31h15.56C639.26,196.67,639.85,197.26,639.85,197.98z"/>
			<path id="XMLID_1179_" class="st25" d="M636.26,197.98L636.26,197.98c0,0.72-0.59,1.31-1.31,1.31h-8.38
				c-0.72,0-1.31-0.59-1.31-1.31l0,0c0-0.72,0.59-1.31,1.31-1.31h8.38C635.67,196.67,636.26,197.26,636.26,197.98z"/>
			<path id="XMLID_1180_" class="st25" d="M630.75,203.48L630.75,203.48c-0.72,0-1.31-0.59-1.31-1.31v-8.38
				c0-0.72,0.59-1.31,1.31-1.31l0,0c0.72,0,1.31,0.59,1.31,1.31v8.38C632.07,202.9,631.48,203.48,630.75,203.48z"/>
		</g>
		<g id="XMLID_1254_">
			<circle id="XMLID_1263_" class="st44" cx="600.85" cy="68.07" r="7.76"/>
			<path id="XMLID_1260_" class="st45" d="M600.85,77.16L600.85,77.16c-0.72,0-1.31-0.59-1.31-1.31V60.29
				c0-0.72,0.59-1.31,1.31-1.31l0,0c0.72,0,1.31,0.59,1.31,1.31v15.56C602.16,76.57,601.57,77.16,600.85,77.16z"/>
			<path id="XMLID_1257_" class="st45" d="M609.94,68.07L609.94,68.07c0,0.72-0.59,1.31-1.31,1.31h-15.56
				c-0.72,0-1.31-0.59-1.31-1.31l0,0c0-0.72,0.59-1.31,1.31-1.31h15.56C609.35,66.76,609.94,67.34,609.94,68.07z"/>
			<path id="XMLID_1256_" class="st25" d="M606.35,68.07L606.35,68.07c0,0.72-0.59,1.31-1.31,1.31h-8.38
				c-0.72,0-1.31-0.59-1.31-1.31l0,0c0-0.72,0.59-1.31,1.31-1.31h8.38C605.77,66.76,606.35,67.34,606.35,68.07z"/>
			<path id="XMLID_1255_" class="st25" d="M600.85,73.57L600.85,73.57c-0.72,0-1.31-0.59-1.31-1.31v-8.38
				c0-0.72,0.59-1.31,1.31-1.31l0,0c0.72,0,1.31,0.59,1.31,1.31v8.38C602.16,72.99,601.57,73.57,600.85,73.57z"/>
		</g>
		<g id="XMLID_1194_">
			<circle id="XMLID_1211_" class="st44" cx="354.02" cy="284.65" r="7.76"/>
			<path id="XMLID_1208_" class="st45" d="M354.02,293.74L354.02,293.74c-0.72,0-1.31-0.59-1.31-1.31v-15.56
				c0-0.72,0.59-1.31,1.31-1.31l0,0c0.72,0,1.31,0.59,1.31,1.31v15.56C355.33,293.15,354.75,293.74,354.02,293.74z"/>
			<path id="XMLID_1201_" class="st45" d="M363.12,284.65L363.12,284.65c0,0.72-0.59,1.31-1.31,1.31h-15.56
				c-0.72,0-1.31-0.59-1.31-1.31l0,0c0-0.72,0.59-1.31,1.31-1.31h15.56C362.53,283.33,363.12,283.92,363.12,284.65z"/>
			<path id="XMLID_1199_" class="st25" d="M359.53,284.65L359.53,284.65c0,0.72-0.59,1.31-1.31,1.31h-8.38
				c-0.72,0-1.31-0.59-1.31-1.31l0,0c0-0.72,0.59-1.31,1.31-1.31h8.38C358.94,283.33,359.53,283.92,359.53,284.65z"/>
			<path id="XMLID_1196_" class="st25" d="M354.02,290.15L354.02,290.15c-0.72,0-1.31-0.59-1.31-1.31v-8.38
				c0-0.72,0.59-1.31,1.31-1.31l0,0c0.72,0,1.31,0.59,1.31,1.31v8.38C355.33,289.56,354.75,290.15,354.02,290.15z"/>
		</g>
		<g id="XMLID_1214_">
			<circle id="XMLID_1226_" class="st44" cx="379.84" cy="139.27" r="7.76"/>
			<path id="XMLID_1223_" class="st45" d="M379.84,148.37L379.84,148.37c-0.72,0-1.31-0.59-1.31-1.31v-15.56
				c0-0.72,0.59-1.31,1.31-1.31l0,0c0.72,0,1.31,0.59,1.31,1.31v15.56C381.15,147.78,380.57,148.37,379.84,148.37z"/>
			<path id="XMLID_1217_" class="st45" d="M388.94,139.27L388.94,139.27c0,0.72-0.59,1.31-1.31,1.31h-15.56
				c-0.72,0-1.31-0.59-1.31-1.31l0,0c0-0.72,0.59-1.31,1.31-1.31h15.56C388.35,137.96,388.94,138.55,388.94,139.27z"/>
			<path id="XMLID_1216_" class="st25" d="M385.35,139.27L385.35,139.27c0,0.72-0.59,1.31-1.31,1.31h-8.38
				c-0.72,0-1.31-0.59-1.31-1.31l0,0c0-0.72,0.59-1.31,1.31-1.31h8.38C384.76,137.96,385.35,138.55,385.35,139.27z"/>
			<path id="XMLID_1215_" class="st25" d="M379.84,144.78L379.84,144.78c-0.72,0-1.31-0.59-1.31-1.31v-8.38
				c0-0.72,0.59-1.31,1.31-1.31l0,0c0.72,0,1.31,0.59,1.31,1.31v8.38C381.15,144.19,380.57,144.78,379.84,144.78z"/>
		</g>
		<path id="XMLID_1192_" class="st25" d="M582.96,155.02c0-1.52,1.23-2.75,2.75-2.75s2.75,1.23,2.75,2.75
			c0,1.52-1.23,2.75-2.75,2.75S582.96,156.54,582.96,155.02z"/>
		<path id="XMLID_1269_" class="st25" d="M696.36,66.19c0-1.52,1.23-2.75,2.75-2.75c1.52,0,2.75,1.23,2.75,2.75
			c0,1.52-1.23,2.75-2.75,2.75C697.59,68.95,696.36,67.71,696.36,66.19z"/>
		<path id="XMLID_1270_" class="st25" d="M378.96,48.23c0-1.52,1.23-2.75,2.75-2.75c1.52,0,2.75,1.23,2.75,2.75
			c0,1.52-1.23,2.75-2.75,2.75C380.2,50.98,378.96,49.75,378.96,48.23z"/>
		<path id="XMLID_1251_" class="st25" d="M349.39,199.85c0-1.52,1.23-2.75,2.75-2.75c1.52,0,2.75,1.23,2.75,2.75
			c0,1.52-1.23,2.75-2.75,2.75C350.63,202.61,349.39,201.38,349.39,199.85z"/>
		<path id="XMLID_1252_" class="st25" d="M434.48,101.15c0-1.52,1.23-2.75,2.75-2.75c1.52,0,2.75,1.23,2.75,2.75
			c0,1.52-1.23,2.75-2.75,2.75C435.71,103.9,434.48,102.67,434.48,101.15z"/>
		<path id="XMLID_1253_" class="st25" d="M292.98,117.32c0-1.52,1.23-2.75,2.75-2.75s2.75,1.23,2.75,2.75
			c0,1.52-1.23,2.75-2.75,2.75S292.98,118.84,292.98,117.32z"/>
		<g id="XMLID_1239_">
			<path id="XMLID_1231_" class="st25" d="M595.34,244.9c0-1.52,1.23-2.75,2.75-2.75c1.52,0,2.75,1.23,2.75,2.75
				s-1.23,2.75-2.75,2.75C596.57,247.66,595.34,246.42,595.34,244.9z"/>
			<path id="XMLID_1232_" class="st25" d="M602.56,237.6c0-1.01,0.82-1.83,1.83-1.83c1.01,0,1.83,0.82,1.83,1.83
				c0,1.01-0.82,1.83-1.83,1.83C603.38,239.43,602.56,238.61,602.56,237.6z"/>
		</g>
		<g id="XMLID_1266_">
			<path id="XMLID_1268_" class="st25" d="M641.01,115.97c-1.51-0.2-2.57-1.58-2.37-3.09c0.2-1.51,1.58-2.57,3.09-2.37
				c1.51,0.2,2.57,1.58,2.37,3.09C643.9,115.11,642.51,116.17,641.01,115.97z"/>
			<path id="XMLID_1267_" class="st25" d="M634.71,107.86c-1-0.13-1.71-1.05-1.58-2.05c0.13-1,1.05-1.71,2.05-1.58
				c1,0.13,1.71,1.05,1.58,2.05C636.63,107.29,635.71,107.99,634.71,107.86z"/>
			<path id="XMLID_1272_" class="st25" d="M560.91,107.86c-1-0.13-1.71-1.05-1.58-2.05c0.13-1,1.05-1.71,2.05-1.58
				s1.71,1.05,1.58,2.05C562.83,107.29,561.91,107.99,560.91,107.86z"/>
			<path id="XMLID_1273_" class="st25" d="M541.17,47.29c-1-0.13-1.71-1.05-1.58-2.05c0.13-1,1.05-1.71,2.05-1.58
				c1,0.13,1.71,1.05,1.58,2.05C543.09,46.72,542.17,47.42,541.17,47.29z"/>
		</g>
		<g id="XMLID_1242_">
			<path id="XMLID_1244_" class="st25" d="M413.54,237.21c-1.52,0.03-2.78-1.18-2.8-2.7c-0.03-1.52,1.18-2.78,2.7-2.8
				c1.52-0.03,2.78,1.18,2.8,2.7C416.27,235.93,415.06,237.18,413.54,237.21z"/>
			<path id="XMLID_1243_" class="st25" d="M406.1,230.13c-1.01,0.02-1.85-0.79-1.86-1.8c-0.02-1.01,0.79-1.85,1.8-1.86
				c1.01-0.02,1.85,0.79,1.86,1.8C407.92,229.27,407.11,230.11,406.1,230.13z"/>
		</g>
		<g id="XMLID_1230_">
			<path id="XMLID_1238_" class="st25" d="M693.6,144.46c0-1.52,1.23-2.75,2.75-2.75s2.75,1.23,2.75,2.75
				c0,1.52-1.23,2.75-2.75,2.75S693.6,145.98,693.6,144.46z"/>
			<path id="XMLID_1236_" class="st25" d="M700.82,137.16c0-1.01,0.82-1.83,1.83-1.83c1.01,0,1.83,0.82,1.83,1.83
				c0,1.01-0.82,1.83-1.83,1.83C701.64,138.99,700.82,138.17,700.82,137.16z"/>
		</g>
		<g id="XMLID_1248_">
			<path id="XMLID_1250_" class="st25" d="M284.76,219.73c0-1.52,1.23-2.75,2.75-2.75c1.52,0,2.75,1.23,2.75,2.75
				c0,1.52-1.23,2.75-2.75,2.75C285.99,222.48,284.76,221.25,284.76,219.73z"/>
			<circle id="XMLID_1249_" class="st25" cx="293.81" cy="212.42" r="1.83"/>
		</g>
		<g id="XMLID_1240_">
			<path id="XMLID_1233_" class="st25" d="M620.47,315.4c0-1.52,1.23-2.75,2.75-2.75s2.75,1.23,2.75,2.75s-1.23,2.75-2.75,2.75
				S620.47,316.92,620.47,315.4z"/>
			<circle id="XMLID_1234_" class="st25" cx="630.75" cy="323.69" r="1.83"/>
		</g>
		<g id="XMLID_1245_">
			<path id="XMLID_1247_" class="st25" d="M400.01,331.03c0-1.52,1.23-2.75,2.75-2.75c1.52,0,2.75,1.23,2.75,2.75
				s-1.23,2.75-2.75,2.75C401.25,333.78,400.01,332.55,400.01,331.03z"/>
			<circle id="XMLID_1246_" class="st25" cx="410.3" cy="339.32" r="1.83"/>
		</g>
	</g>
</g>
</svg>
